<svg xmlns="http://www.w3.org/2000/svg" viewBox="0 0 512 512" width="100%" height="100%">
  <defs>
    <linearGradient id="shieldGrad" x1="0%" y1="0%" x2="100%" y2="100%">
      <stop offset="0%" stop-color="#dc2626" />
      <stop offset="100%" stop-color="#991b1b" />
    </linearGradient>
  </defs>
  <!-- Background Shield shape representing validation/security -->
  <path d="M256 48C150 80 80 120 80 220c0 120 100 210 176 244 76-34 176-124 176-244 0-100-70-140-176-172z" fill="url(#shieldGrad)" />
  <!-- Inner shield accent -->
  <path d="M256 75C170 102 110 135 110 220c0 98 80 175 146 205 66-30 146-107 146-205 0-85-60-118-146-145z" fill="#ffffff" opacity="0.15" />
  <!-- A clean minimal vector car/shield silhouette in white -->
  <g fill="#ffffff" transform="matrix(0.8 0 0 0.8 51.2 51.2)">
    <!-- Car body graphic -->
    <path d="M340 180h-168l-30 60h228z" />
    <path d="M110 250c-15 0-25 10-25 25v60h342v-60c0-15-10-25-25-25H110zm50 70c-11 0-20-9-20-20s9-20 20-20 20 9 20 20-9 20-20 20zm192 0c-11 0-20-9-20-20s9-20 20-20 20 9 20 20-9 20-20 20z" />
  </g>
  <!-- Checkmark representing premium validation -->
  <path d="M220 310l-45-45-15 15 60 60 110-110-15-15z" fill="#22c55e" stroke="#ffffff" stroke-width="8" stroke-linejoin="round" />
</svg>
